<?xml version='1.0' encoding='ascii'?>
<svg xmlns="http://www.w3.org/2000/svg" xmlns:inkscape="http://www.inkscape.org/namespaces/inkscape" version="1.1" width="200" height="200">
    <g id="View Layer_Shape" inkscape:groupmode="lineset" inkscape:label="View Layer_Shape">
        <g inkscape:groupmode="layer" id="strokes" inkscape:label="strokes">
            <path fill="none" stroke-width="1.0" stroke-linecap="round" stroke-opacity="1.0" stroke="rgb(0, 0, 0)" stroke-linejoin="round" d=" M 157.290, 112.965 157.290, 106.745 157.290, 106.168 157.290, 70.088 129.822, 39.104 45.284, 49.171 45.284, 88.811 45.284, 88.998 45.284, 95.218 45.284, 88.998 45.284, 88.811 45.284, 49.171 129.822, 39.104 157.290, 70.088 157.290, 106.168 157.290, 106.745 157.290, 112.965 157.290, 106.745 157.290, 106.168 157.290, 70.088 129.822, 39.104 45.284, 49.171 45.284, 88.811 45.284, 88.998 45.284, 95.218 " />
            <path fill="none" stroke-width="1.0" stroke-linecap="round" stroke-opacity="1.0" stroke="rgb(0, 0, 0)" stroke-linejoin="round" d=" M 45.284, 95.794 45.284, 131.875 72.752, 162.859 157.290, 152.791 157.290, 113.152 157.290, 152.791 72.752, 162.859 45.284, 131.875 45.284, 95.794 45.284, 131.875 72.752, 162.859 157.290, 152.791 157.290, 113.152 " />
            <path fill="none" stroke-width="1.0" stroke-linecap="round" stroke-opacity="1.0" stroke="rgb(0, 0, 0)" stroke-linejoin="round" d=" M 60.577, 112.468 54.637, 87.884 54.593, 87.702 45.284, 49.171 54.593, 87.702 54.637, 87.884 60.577, 112.468 54.637, 87.884 54.593, 87.702 45.284, 49.171 157.290, 70.088 141.077, 87.880 140.818, 88.165 113.462, 118.184 140.818, 88.165 141.077, 87.880 157.290, 70.088 141.077, 87.880 140.818, 88.165 113.462, 118.184 " />
            <path fill="none" stroke-width="1.0" stroke-linecap="round" stroke-opacity="1.0" stroke="rgb(0, 0, 0)" stroke-linejoin="round" d=" M 72.752, 162.859 60.769, 113.261 72.752, 162.859 60.769, 113.261 " />
            <path fill="none" stroke-width="1.0" stroke-linecap="round" stroke-opacity="1.0" stroke="rgb(0, 0, 0)" stroke-linejoin="round" d=" M 72.752, 162.859 113.270, 118.394 72.752, 162.859 113.270, 118.394 " />
        </g>
    </g>
    <g id="View Layer_Frame" inkscape:groupmode="lineset" inkscape:label="View Layer_Frame">
        <g inkscape:groupmode="layer" id="strokes" inkscape:label="strokes">
            <path fill="none" stroke-width="2.0" stroke-linecap="round" stroke-opacity="1.0" stroke="rgb(255, 0, 0)" stroke-linejoin="round" d=" M 45.284, 88.811 45.235, 88.816 44.773, 88.871 44.310, 88.927 43.847, 88.982 43.385, 89.037 42.922, 89.092 42.459, 89.147 41.997, 89.202 41.534, 89.257 41.071, 89.312 40.609, 89.367 40.146, 89.422 39.683, 89.477 39.834, 89.647 39.984, 89.817 40.134, 89.986 40.285, 90.156 40.435, 90.325 40.585, 90.495 40.736, 90.664 40.886, 90.834 41.036, 91.004 41.187, 91.173 41.337, 91.343 41.487, 91.512 41.638, 91.682 41.788, 91.851 41.938, 92.021 42.089, 92.190 42.239, 92.360 42.389, 92.530 42.540, 92.699 42.690, 92.869 42.840, 93.038 42.991, 93.208 43.141, 93.377 43.291, 93.547 43.442, 93.716 43.592, 93.886 43.742, 94.056 43.893, 94.225 44.043, 94.395 44.193, 94.564 44.343, 94.734 44.494, 94.903 44.644, 95.073 44.794, 95.243 44.945, 95.412 45.095, 95.582 45.245, 95.751 45.284, 95.794 45.396, 95.921 45.546, 96.090 45.696, 96.260 45.847, 96.429 45.997, 96.599 46.147, 96.769 46.298, 96.938 46.448, 97.108 46.598, 97.277 46.749, 97.447 46.899, 97.616 47.049, 97.786 47.200, 97.956 47.350, 98.125 47.500, 98.295 47.651, 98.464 47.801, 98.634 47.951, 98.803 48.102, 98.973 48.252, 99.142 48.402, 99.312 48.553, 99.482 48.703, 99.651 48.853, 99.821 49.004, 99.990 49.154, 100.160 49.304, 100.329 49.454, 100.499 49.605, 100.668 49.755, 100.838 49.905, 101.008 50.056, 101.177 50.206, 101.347 50.356, 101.516 50.507, 101.686 50.657, 101.855 50.807, 102.025 50.958, 102.195 51.108, 102.364 51.258, 102.534 51.409, 102.703 51.559, 102.873 51.709, 103.042 51.860, 103.212 52.010, 103.381 52.160, 103.551 52.311, 103.721 52.461, 103.890 52.611, 104.060 52.762, 104.229 52.912, 104.399 53.062, 104.568 53.213, 104.738 53.363, 104.908 53.513, 105.077 53.664, 105.247 53.814, 105.416 53.964, 105.586 54.115, 105.755 54.265, 105.925 54.415, 106.094 54.565, 106.264 54.716, 106.434 54.866, 106.603 55.016, 106.773 55.167, 106.942 55.317, 107.112 55.467, 107.281 55.618, 107.451 55.768, 107.620 55.918, 107.790 56.069, 107.960 56.219, 108.129 56.369, 108.299 56.520, 108.468 56.670, 108.638 56.820, 108.807 56.971, 108.977 57.121, 109.147 57.271, 109.316 57.422, 109.486 57.572, 109.655 57.722, 109.825 57.873, 109.994 58.023, 110.164 58.173, 110.333 58.324, 110.503 58.474, 110.673 58.624, 110.842 58.775, 111.012 58.925, 111.181 59.075, 111.351 59.226, 111.520 59.376, 111.690 59.526, 111.860 59.676, 112.029 59.827, 112.199 59.977, 112.368 60.127, 112.538 60.278, 112.707 60.428, 112.877 60.578, 113.046 60.729, 113.216 60.769, 113.261 60.879, 113.386 61.029, 113.555 61.180, 113.725 61.330, 113.894 61.480, 114.064 61.631, 114.233 61.781, 114.403 61.931, 114.572 62.082, 114.742 62.232, 114.912 62.382, 115.081 62.533, 115.251 62.683, 115.420 62.833, 115.590 62.984, 115.759 63.134, 115.929 63.284, 116.099 63.435, 116.268 63.585, 116.438 63.735, 116.607 63.886, 116.777 64.036, 116.946 64.186, 117.116 64.337, 117.285 64.487, 117.455 64.637, 117.625 64.787, 117.794 64.938, 117.964 65.088, 118.133 65.238, 118.303 65.389, 118.472 65.539, 118.642 65.689, 118.812 65.840, 118.981 65.990, 119.151 66.140, 119.320 66.291, 119.490 66.441, 119.659 66.591, 119.829 66.742, 119.998 66.892, 120.168 67.042, 120.338 67.193, 120.507 67.343, 120.677 67.493, 120.846 67.644, 121.016 67.794, 121.185 67.944, 121.355 68.095, 121.524 68.245, 121.694 68.395, 121.864 68.546, 122.033 68.696, 122.203 68.846, 122.372 68.997, 122.542 69.147, 122.711 69.297, 122.881 69.448, 123.051 69.598, 123.220 69.748, 123.390 69.898, 123.559 70.361, 123.504 70.824, 123.449 71.286, 123.394 71.749, 123.339 72.212, 123.284 72.674, 123.229 73.137, 123.174 73.600, 123.118 74.062, 123.063 74.525, 123.008 74.988, 122.953 75.450, 122.898 75.913, 122.843 76.376, 122.788 76.838, 122.733 77.301, 122.678 77.763, 122.623 78.226, 122.568 78.689, 122.512 79.151, 122.457 79.614, 122.402 80.077, 122.347 80.539, 122.292 81.002, 122.237 81.465, 122.182 81.927, 122.127 82.390, 122.072 82.853, 122.017 83.315, 121.962 83.778, 121.906 84.241, 121.851 84.703, 121.796 85.166, 121.741 85.628, 121.686 86.091, 121.631 86.554, 121.576 87.016, 121.521 87.479, 121.466 87.942, 121.411 88.404, 121.355 88.867, 121.300 89.330, 121.245 89.792, 121.190 90.255, 121.135 90.718, 121.080 91.180, 121.025 91.643, 120.970 92.106, 120.915 92.568, 120.860 93.031, 120.805 93.493, 120.749 93.956, 120.694 94.419, 120.639 94.881, 120.584 95.344, 120.529 95.807, 120.474 96.269, 120.419 96.732, 120.364 97.195, 120.309 97.657, 120.254 98.120, 120.199 98.583, 120.143 99.045, 120.088 99.508, 120.033 99.971, 119.978 100.433, 119.923 100.896, 119.868 101.359, 119.813 101.821, 119.758 102.284, 119.703 102.746, 119.648 103.209, 119.592 103.672, 119.537 104.134, 119.482 104.597, 119.427 105.060, 119.372 105.522, 119.317 105.985, 119.262 106.448, 119.207 106.910, 119.152 107.373, 119.097 107.836, 119.042 108.298, 118.986 108.761, 118.931 109.224, 118.876 109.686, 118.821 110.149, 118.766 110.611, 118.711 111.074, 118.656 111.537, 118.601 111.999, 118.546 112.462, 118.491 112.925, 118.436 113.270, 118.394 113.387, 118.380 113.850, 118.325 114.313, 118.270 114.775, 118.215 115.238, 118.160 115.701, 118.105 116.163, 118.050 116.626, 117.995 117.089, 117.940 117.551, 117.885 118.014, 117.829 118.476, 117.774 118.939, 117.719 119.402, 117.664 119.864, 117.609 120.327, 117.554 120.790, 117.499 121.252, 117.444 121.715, 117.389 122.178, 117.334 122.640, 117.279 123.103, 117.223 123.566, 117.168 124.028, 117.113 124.491, 117.058 124.954, 117.003 125.416, 116.948 125.879, 116.893 126.341, 116.838 126.804, 116.783 127.267, 116.728 127.729, 116.673 128.192, 116.617 128.655, 116.562 129.117, 116.507 129.580, 116.452 129.822, 116.423 130.043, 116.397 130.505, 116.342 130.968, 116.287 131.431, 116.232 131.893, 116.177 132.356, 116.122 132.819, 116.066 133.281, 116.011 133.744, 115.956 134.206, 115.901 134.669, 115.846 135.132, 115.791 135.594, 115.736 136.057, 115.681 136.520, 115.626 136.982, 115.571 137.445, 115.516 137.908, 115.460 138.370, 115.405 138.833, 115.350 139.296, 115.295 139.758, 115.240 140.221, 115.185 140.684, 115.130 141.146, 115.075 141.609, 115.020 142.072, 114.965 142.534, 114.910 142.997, 114.854 143.459, 114.799 143.922, 114.744 144.385, 114.689 144.847, 114.634 145.310, 114.579 145.773, 114.524 146.235, 114.469 146.698, 114.414 147.161, 114.359 147.623, 114.303 148.086, 114.248 148.549, 114.193 149.011, 114.138 149.474, 114.083 149.937, 114.028 150.399, 113.973 150.862, 113.918 151.324, 113.863 151.787, 113.808 152.250, 113.753 152.712, 113.697 153.175, 113.642 153.638, 113.587 154.100, 113.532 154.563, 113.477 155.026, 113.422 155.488, 113.367 155.951, 113.312 156.414, 113.257 156.876, 113.202 157.290, 113.152 157.339, 113.147 157.802, 113.091 158.264, 113.036 158.727, 112.981 159.189, 112.926 159.652, 112.871 160.115, 112.816 160.577, 112.761 161.040, 112.706 161.503, 112.651 161.965, 112.596 162.428, 112.540 162.891, 112.485 162.740, 112.316 162.590, 112.146 162.440, 111.977 162.289, 111.807 162.139, 111.638 161.989, 111.468 161.838, 111.298 161.688, 111.129 161.538, 110.959 161.387, 110.790 161.237, 110.620 161.087, 110.451 160.936, 110.281 160.786, 110.112 160.636, 109.942 160.485, 109.772 160.335, 109.603 160.185, 109.433 160.035, 109.264 159.884, 109.094 159.734, 108.925 159.584, 108.755 159.433, 108.585 159.283, 108.416 159.133, 108.246 158.982, 108.077 158.832, 107.907 158.682, 107.738 158.531, 107.568 158.381, 107.399 158.231, 107.229 158.080, 107.059 157.930, 106.890 157.780, 106.720 157.629, 106.551 157.479, 106.381 157.329, 106.212 157.290, 106.168 157.329, 106.212 157.479, 106.381 157.629, 106.551 157.780, 106.720 157.930, 106.890 158.080, 107.059 158.231, 107.229 158.381, 107.399 158.531, 107.568 158.682, 107.738 158.832, 107.907 158.982, 108.077 159.133, 108.246 159.283, 108.416 159.433, 108.585 159.584, 108.755 159.734, 108.925 159.884, 109.094 160.035, 109.264 160.185, 109.433 160.335, 109.603 160.485, 109.772 160.636, 109.942 160.786, 110.112 160.936, 110.281 161.087, 110.451 161.237, 110.620 161.387, 110.790 161.538, 110.959 161.688, 111.129 161.838, 111.298 161.989, 111.468 162.139, 111.638 162.289, 111.807 162.440, 111.977 162.590, 112.146 162.740, 112.316 162.891, 112.485 162.428, 112.540 161.965, 112.596 161.503, 112.651 161.040, 112.706 160.577, 112.761 160.115, 112.816 159.652, 112.871 159.189, 112.926 158.727, 112.981 158.264, 113.036 157.802, 113.091 157.339, 113.147 157.290, 113.152 156.876, 113.202 156.414, 113.257 155.951, 113.312 155.488, 113.367 155.026, 113.422 154.563, 113.477 154.100, 113.532 153.638, 113.587 153.175, 113.642 152.712, 113.697 152.250, 113.753 151.787, 113.808 151.324, 113.863 150.862, 113.918 150.399, 113.973 149.937, 114.028 149.474, 114.083 149.011, 114.138 148.549, 114.193 148.086, 114.248 147.623, 114.303 147.161, 114.359 146.698, 114.414 146.235, 114.469 145.773, 114.524 145.310, 114.579 144.847, 114.634 144.385, 114.689 143.922, 114.744 143.459, 114.799 142.997, 114.854 142.534, 114.910 142.072, 114.965 141.609, 115.020 141.146, 115.075 140.684, 115.130 140.221, 115.185 139.758, 115.240 139.296, 115.295 138.833, 115.350 138.370, 115.405 137.908, 115.460 137.445, 115.516 136.982, 115.571 136.520, 115.626 136.057, 115.681 135.594, 115.736 135.132, 115.791 134.669, 115.846 134.206, 115.901 133.744, 115.956 133.281, 116.011 132.819, 116.066 132.356, 116.122 131.893, 116.177 131.431, 116.232 130.968, 116.287 130.505, 116.342 130.043, 116.397 129.822, 116.423 129.580, 116.452 129.117, 116.507 128.655, 116.562 128.192, 116.617 127.729, 116.673 127.267, 116.728 126.804, 116.783 126.341, 116.838 125.879, 116.893 125.416, 116.948 124.954, 117.003 124.491, 117.058 124.028, 117.113 123.566, 117.168 123.103, 117.223 122.640, 117.279 122.178, 117.334 121.715, 117.389 121.252, 117.444 120.790, 117.499 120.327, 117.554 119.864, 117.609 119.402, 117.664 118.939, 117.719 118.476, 117.774 118.014, 117.829 117.551, 117.885 117.089, 117.940 116.626, 117.995 116.163, 118.050 115.701, 118.105 115.238, 118.160 114.775, 118.215 114.313, 118.270 113.850, 118.325 113.387, 118.380 113.270, 118.394 112.925, 118.436 112.462, 118.491 111.999, 118.546 111.537, 118.601 111.074, 118.656 110.611, 118.711 110.149, 118.766 109.686, 118.821 109.224, 118.876 108.761, 118.931 108.298, 118.986 107.836, 119.042 107.373, 119.097 106.910, 119.152 106.448, 119.207 105.985, 119.262 105.522, 119.317 105.060, 119.372 104.597, 119.427 104.134, 119.482 103.672, 119.537 103.209, 119.592 102.746, 119.648 102.284, 119.703 101.821, 119.758 101.359, 119.813 100.896, 119.868 100.433, 119.923 99.971, 119.978 99.508, 120.033 99.045, 120.088 98.583, 120.143 98.120, 120.199 97.657, 120.254 97.195, 120.309 96.732, 120.364 96.269, 120.419 95.807, 120.474 95.344, 120.529 94.881, 120.584 94.419, 120.639 93.956, 120.694 93.493, 120.749 93.031, 120.805 92.568, 120.860 92.106, 120.915 91.643, 120.970 91.180, 121.025 90.718, 121.080 90.255, 121.135 89.792, 121.190 89.330, 121.245 88.867, 121.300 88.404, 121.355 87.942, 121.411 87.479, 121.466 87.016, 121.521 86.554, 121.576 86.091, 121.631 85.628, 121.686 85.166, 121.741 84.703, 121.796 84.241, 121.851 83.778, 121.906 83.315, 121.962 82.853, 122.017 82.390, 122.072 81.927, 122.127 81.465, 122.182 81.002, 122.237 80.539, 122.292 80.077, 122.347 79.614, 122.402 79.151, 122.457 78.689, 122.512 78.226, 122.568 77.763, 122.623 77.301, 122.678 76.838, 122.733 76.376, 122.788 75.913, 122.843 75.450, 122.898 74.988, 122.953 74.525, 123.008 74.062, 123.063 73.600, 123.118 73.137, 123.174 72.674, 123.229 72.212, 123.284 71.749, 123.339 71.286, 123.394 70.824, 123.449 70.361, 123.504 69.898, 123.559 69.748, 123.390 69.598, 123.220 69.448, 123.051 69.297, 122.881 69.147, 122.711 68.997, 122.542 68.846, 122.372 68.696, 122.203 68.546, 122.033 68.395, 121.864 68.245, 121.694 68.095, 121.524 67.944, 121.355 67.794, 121.185 67.644, 121.016 67.493, 120.846 67.343, 120.677 67.193, 120.507 67.042, 120.338 66.892, 120.168 66.742, 119.998 66.591, 119.829 66.441, 119.659 66.291, 119.490 66.140, 119.320 65.990, 119.151 65.840, 118.981 65.689, 118.812 65.539, 118.642 65.389, 118.472 65.238, 118.303 65.088, 118.133 64.938, 117.964 64.787, 117.794 64.637, 117.625 64.487, 117.455 64.337, 117.285 64.186, 117.116 64.036, 116.946 63.886, 116.777 63.735, 116.607 63.585, 116.438 63.435, 116.268 63.284, 116.099 63.134, 115.929 62.984, 115.759 62.833, 115.590 62.683, 115.420 62.533, 115.251 62.382, 115.081 62.232, 114.912 62.082, 114.742 61.931, 114.572 61.781, 114.403 61.631, 114.233 61.480, 114.064 61.330, 113.894 61.180, 113.725 61.029, 113.555 60.879, 113.386 60.769, 113.261 60.729, 113.216 60.578, 113.046 60.428, 112.877 60.278, 112.707 60.127, 112.538 59.977, 112.368 59.827, 112.199 59.676, 112.029 59.526, 111.860 59.376, 111.690 59.226, 111.520 59.075, 111.351 58.925, 111.181 58.775, 111.012 58.624, 110.842 58.474, 110.673 58.324, 110.503 58.173, 110.333 58.023, 110.164 57.873, 109.994 57.722, 109.825 57.572, 109.655 57.422, 109.486 57.271, 109.316 57.121, 109.147 56.971, 108.977 56.820, 108.807 56.670, 108.638 56.520, 108.468 56.369, 108.299 56.219, 108.129 56.069, 107.960 55.918, 107.790 55.768, 107.620 55.618, 107.451 55.467, 107.281 55.317, 107.112 55.167, 106.942 55.016, 106.773 54.866, 106.603 54.716, 106.434 54.565, 106.264 54.415, 106.094 54.265, 105.925 54.115, 105.755 53.964, 105.586 53.814, 105.416 53.664, 105.247 53.513, 105.077 53.363, 104.908 53.213, 104.738 53.062, 104.568 52.912, 104.399 52.762, 104.229 52.611, 104.060 52.461, 103.890 52.311, 103.721 52.160, 103.551 52.010, 103.381 51.860, 103.212 51.709, 103.042 51.559, 102.873 51.409, 102.703 51.258, 102.534 51.108, 102.364 50.958, 102.195 50.807, 102.025 50.657, 101.855 50.507, 101.686 50.356, 101.516 50.206, 101.347 50.056, 101.177 49.905, 101.008 49.755, 100.838 49.605, 100.668 49.454, 100.499 49.304, 100.329 49.154, 100.160 49.004, 99.990 48.853, 99.821 48.703, 99.651 48.553, 99.482 48.402, 99.312 48.252, 99.142 48.102, 98.973 47.951, 98.803 47.801, 98.634 47.651, 98.464 47.500, 98.295 47.350, 98.125 47.200, 97.956 47.049, 97.786 46.899, 97.616 46.749, 97.447 46.598, 97.277 46.448, 97.108 46.298, 96.938 46.147, 96.769 45.997, 96.599 45.847, 96.429 45.696, 96.260 45.546, 96.090 45.396, 95.921 45.284, 95.794 45.245, 95.751 45.095, 95.582 44.945, 95.412 44.794, 95.243 44.644, 95.073 44.494, 94.903 44.343, 94.734 44.193, 94.564 44.043, 94.395 43.893, 94.225 43.742, 94.056 43.592, 93.886 43.442, 93.716 43.291, 93.547 43.141, 93.377 42.991, 93.208 42.840, 93.038 42.690, 92.869 42.540, 92.699 42.389, 92.530 42.239, 92.360 42.089, 92.190 41.938, 92.021 41.788, 91.851 41.638, 91.682 41.487, 91.512 41.337, 91.343 41.187, 91.173 41.036, 91.004 40.886, 90.834 40.736, 90.664 40.585, 90.495 40.435, 90.325 40.285, 90.156 40.134, 89.986 39.984, 89.817 39.834, 89.647 39.683, 89.477 40.146, 89.422 40.609, 89.367 41.071, 89.312 41.534, 89.257 41.997, 89.202 42.459, 89.147 42.922, 89.092 43.385, 89.037 43.847, 88.982 44.310, 88.927 44.773, 88.871 45.235, 88.816 45.284, 88.811 45.235, 88.816 44.773, 88.871 44.310, 88.927 43.847, 88.982 43.385, 89.037 42.922, 89.092 42.459, 89.147 41.997, 89.202 41.534, 89.257 41.071, 89.312 40.609, 89.367 40.146, 89.422 39.683, 89.477 39.834, 89.647 39.984, 89.817 40.134, 89.986 40.285, 90.156 40.435, 90.325 40.585, 90.495 40.736, 90.664 40.886, 90.834 41.036, 91.004 41.187, 91.173 41.337, 91.343 41.487, 91.512 41.638, 91.682 41.788, 91.851 41.938, 92.021 42.089, 92.190 42.239, 92.360 42.389, 92.530 42.540, 92.699 42.690, 92.869 42.840, 93.038 42.991, 93.208 43.141, 93.377 43.291, 93.547 43.442, 93.716 43.592, 93.886 43.742, 94.056 43.893, 94.225 44.043, 94.395 44.193, 94.564 44.343, 94.734 44.494, 94.903 44.644, 95.073 44.794, 95.243 44.945, 95.412 45.095, 95.582 45.245, 95.751 45.284, 95.794 45.396, 95.921 45.546, 96.090 45.696, 96.260 45.847, 96.429 45.997, 96.599 46.147, 96.769 46.298, 96.938 46.448, 97.108 46.598, 97.277 46.749, 97.447 46.899, 97.616 47.049, 97.786 47.200, 97.956 47.350, 98.125 47.500, 98.295 47.651, 98.464 47.801, 98.634 47.951, 98.803 48.102, 98.973 48.252, 99.142 48.402, 99.312 48.553, 99.482 48.703, 99.651 48.853, 99.821 49.004, 99.990 49.154, 100.160 49.304, 100.329 49.454, 100.499 49.605, 100.668 49.755, 100.838 49.905, 101.008 50.056, 101.177 50.206, 101.347 50.356, 101.516 50.507, 101.686 50.657, 101.855 50.807, 102.025 50.958, 102.195 51.108, 102.364 51.258, 102.534 51.409, 102.703 51.559, 102.873 51.709, 103.042 51.860, 103.212 52.010, 103.381 52.160, 103.551 52.311, 103.721 52.461, 103.890 52.611, 104.060 52.762, 104.229 52.912, 104.399 53.062, 104.568 53.213, 104.738 53.363, 104.908 53.513, 105.077 53.664, 105.247 53.814, 105.416 53.964, 105.586 54.115, 105.755 54.265, 105.925 54.415, 106.094 54.565, 106.264 54.716, 106.434 54.866, 106.603 55.016, 106.773 55.167, 106.942 55.317, 107.112 55.467, 107.281 55.618, 107.451 55.768, 107.620 55.918, 107.790 56.069, 107.960 56.219, 108.129 56.369, 108.299 56.520, 108.468 56.670, 108.638 56.820, 108.807 56.971, 108.977 57.121, 109.147 57.271, 109.316 57.422, 109.486 57.572, 109.655 57.722, 109.825 57.873, 109.994 58.023, 110.164 58.173, 110.333 58.324, 110.503 58.474, 110.673 58.624, 110.842 58.775, 111.012 58.925, 111.181 59.075, 111.351 59.226, 111.520 59.376, 111.690 59.526, 111.860 59.676, 112.029 59.827, 112.199 59.977, 112.368 60.127, 112.538 60.278, 112.707 60.428, 112.877 60.578, 113.046 60.729, 113.216 60.769, 113.261 60.879, 113.386 61.029, 113.555 61.180, 113.725 61.330, 113.894 61.480, 114.064 61.631, 114.233 61.781, 114.403 61.931, 114.572 62.082, 114.742 62.232, 114.912 62.382, 115.081 62.533, 115.251 62.683, 115.420 62.833, 115.590 62.984, 115.759 63.134, 115.929 63.284, 116.099 63.435, 116.268 63.585, 116.438 63.735, 116.607 63.886, 116.777 64.036, 116.946 64.186, 117.116 64.337, 117.285 64.487, 117.455 64.637, 117.625 64.787, 117.794 64.938, 117.964 65.088, 118.133 65.238, 118.303 65.389, 118.472 65.539, 118.642 65.689, 118.812 65.840, 118.981 65.990, 119.151 66.140, 119.320 66.291, 119.490 66.441, 119.659 66.591, 119.829 66.742, 119.998 66.892, 120.168 67.042, 120.338 67.193, 120.507 67.343, 120.677 67.493, 120.846 67.644, 121.016 67.794, 121.185 67.944, 121.355 68.095, 121.524 68.245, 121.694 68.395, 121.864 68.546, 122.033 68.696, 122.203 68.846, 122.372 68.997, 122.542 69.147, 122.711 69.297, 122.881 69.448, 123.051 69.598, 123.220 69.748, 123.390 69.898, 123.559 70.361, 123.504 70.824, 123.449 71.286, 123.394 71.749, 123.339 72.212, 123.284 72.674, 123.229 73.137, 123.174 73.600, 123.118 74.062, 123.063 74.525, 123.008 74.988, 122.953 75.450, 122.898 75.913, 122.843 76.376, 122.788 76.838, 122.733 77.301, 122.678 77.763, 122.623 78.226, 122.568 78.689, 122.512 79.151, 122.457 79.614, 122.402 80.077, 122.347 80.539, 122.292 81.002, 122.237 81.465, 122.182 81.927, 122.127 82.390, 122.072 82.853, 122.017 83.315, 121.962 83.778, 121.906 84.241, 121.851 84.703, 121.796 85.166, 121.741 85.628, 121.686 86.091, 121.631 86.554, 121.576 87.016, 121.521 87.479, 121.466 87.942, 121.411 88.404, 121.355 88.867, 121.300 89.330, 121.245 89.792, 121.190 90.255, 121.135 90.718, 121.080 91.180, 121.025 91.643, 120.970 92.106, 120.915 92.568, 120.860 93.031, 120.805 93.493, 120.749 93.956, 120.694 94.419, 120.639 94.881, 120.584 95.344, 120.529 95.807, 120.474 96.269, 120.419 96.732, 120.364 97.195, 120.309 97.657, 120.254 98.120, 120.199 98.583, 120.143 99.045, 120.088 99.508, 120.033 99.971, 119.978 100.433, 119.923 100.896, 119.868 101.359, 119.813 101.821, 119.758 102.284, 119.703 102.746, 119.648 103.209, 119.592 103.672, 119.537 104.134, 119.482 104.597, 119.427 105.060, 119.372 105.522, 119.317 105.985, 119.262 106.448, 119.207 106.910, 119.152 107.373, 119.097 107.836, 119.042 108.298, 118.986 108.761, 118.931 109.224, 118.876 109.686, 118.821 110.149, 118.766 110.611, 118.711 111.074, 118.656 111.537, 118.601 111.999, 118.546 112.462, 118.491 112.925, 118.436 113.270, 118.394 113.387, 118.380 113.850, 118.325 114.313, 118.270 114.775, 118.215 115.238, 118.160 115.701, 118.105 116.163, 118.050 116.626, 117.995 117.089, 117.940 117.551, 117.885 118.014, 117.829 118.476, 117.774 118.939, 117.719 119.402, 117.664 119.864, 117.609 120.327, 117.554 120.790, 117.499 121.252, 117.444 121.715, 117.389 122.178, 117.334 122.640, 117.279 123.103, 117.223 123.566, 117.168 124.028, 117.113 124.491, 117.058 124.954, 117.003 125.416, 116.948 125.879, 116.893 126.341, 116.838 126.804, 116.783 127.267, 116.728 127.729, 116.673 128.192, 116.617 128.655, 116.562 129.117, 116.507 129.580, 116.452 129.822, 116.423 130.043, 116.397 130.505, 116.342 130.968, 116.287 131.431, 116.232 131.893, 116.177 132.356, 116.122 132.819, 116.066 133.281, 116.011 133.744, 115.956 134.206, 115.901 134.669, 115.846 135.132, 115.791 135.594, 115.736 136.057, 115.681 136.520, 115.626 136.982, 115.571 137.445, 115.516 137.908, 115.460 138.370, 115.405 138.833, 115.350 139.296, 115.295 139.758, 115.240 140.221, 115.185 140.684, 115.130 141.146, 115.075 141.609, 115.020 142.072, 114.965 142.534, 114.910 142.997, 114.854 143.459, 114.799 143.922, 114.744 144.385, 114.689 144.847, 114.634 145.310, 114.579 145.773, 114.524 146.235, 114.469 146.698, 114.414 147.161, 114.359 147.623, 114.303 148.086, 114.248 148.549, 114.193 149.011, 114.138 149.474, 114.083 149.937, 114.028 150.399, 113.973 150.862, 113.918 151.324, 113.863 151.787, 113.808 152.250, 113.753 152.712, 113.697 153.175, 113.642 153.638, 113.587 154.100, 113.532 154.563, 113.477 155.026, 113.422 155.488, 113.367 155.951, 113.312 156.414, 113.257 156.876, 113.202 157.290, 113.152 157.339, 113.147 157.802, 113.091 158.264, 113.036 158.727, 112.981 159.189, 112.926 159.652, 112.871 160.115, 112.816 160.577, 112.761 161.040, 112.706 161.503, 112.651 161.965, 112.596 162.428, 112.540 162.891, 112.485 162.740, 112.316 162.590, 112.146 162.440, 111.977 162.289, 111.807 162.139, 111.638 161.989, 111.468 161.838, 111.298 161.688, 111.129 161.538, 110.959 161.387, 110.790 161.237, 110.620 161.087, 110.451 160.936, 110.281 160.786, 110.112 160.636, 109.942 160.485, 109.772 160.335, 109.603 160.185, 109.433 160.035, 109.264 159.884, 109.094 159.734, 108.925 159.584, 108.755 159.433, 108.585 159.283, 108.416 159.133, 108.246 158.982, 108.077 158.832, 107.907 158.682, 107.738 158.531, 107.568 158.381, 107.399 158.231, 107.229 158.080, 107.059 157.930, 106.890 157.780, 106.720 157.629, 106.551 157.479, 106.381 157.329, 106.212 157.290, 106.168 " />
        </g>
    </g>
    <g id="View Layer_Answer" xmlns:inkscape="http://www.inkscape.org/namespaces/inkscape" inkscape:groupmode="lineset" inkscape:label="View Layer_Answer">
        <g xmlns:inkscape="http://www.inkscape.org/namespaces/inkscape" inkscape:groupmode="layer" id="strokes" inkscape:label="strokes" />
    </g>
</svg>
