<?xml version='1.0' encoding='ascii'?>
<svg xmlns="http://www.w3.org/2000/svg" xmlns:inkscape="http://www.inkscape.org/namespaces/inkscape" version="1.1" width="200" height="200">
    <g id="View Layer_Shape" inkscape:groupmode="lineset" inkscape:label="View Layer_Shape">
        <g inkscape:groupmode="layer" id="strokes" inkscape:label="strokes">
            <path fill="none" stroke-width="1.0" stroke-linecap="round" stroke-opacity="1.0" stroke="rgb(0, 0, 0)" stroke-linejoin="round" d=" M 48.019, 114.261 38.710, 152.791 123.248, 162.859 150.716, 131.875 150.716, 95.794 150.716, 131.875 123.248, 162.859 38.710, 152.791 48.019, 114.261 38.710, 152.791 123.248, 162.859 150.716, 131.875 150.716, 95.794 " />
            <path fill="none" stroke-width="1.0" stroke-linecap="round" stroke-opacity="1.0" stroke="rgb(0, 0, 0)" stroke-linejoin="round" d=" M 150.716, 49.171 123.248, 80.155 150.716, 49.171 123.248, 80.155 " />
            <path fill="none" stroke-width="1.0" stroke-linecap="round" stroke-opacity="1.0" stroke="rgb(0, 0, 0)" stroke-linejoin="round" d=" M 123.248, 80.155 123.248, 85.540 123.248, 85.727 123.248, 123.032 123.248, 85.727 123.248, 85.540 123.248, 80.155 123.248, 85.540 123.248, 85.727 123.248, 123.032 " />
            <path fill="none" stroke-width="1.0" stroke-linecap="round" stroke-opacity="1.0" stroke="rgb(0, 0, 0)" stroke-linejoin="round" d=" M 150.716, 95.218 150.716, 88.998 150.716, 88.811 150.716, 49.171 66.178, 39.104 54.194, 88.702 54.003, 89.495 48.063, 114.079 54.003, 89.495 54.194, 88.702 66.178, 39.104 150.716, 49.171 150.716, 88.811 150.716, 88.998 150.716, 95.218 150.716, 88.998 150.716, 88.811 150.716, 49.171 66.178, 39.104 54.194, 88.702 54.003, 89.495 48.063, 114.079 " />
            <path fill="none" stroke-width="1.0" stroke-linecap="round" stroke-opacity="1.0" stroke="rgb(0, 0, 0)" stroke-linejoin="round" d=" M 66.178, 39.104 123.248, 80.155 66.178, 39.104 123.248, 80.155 " />
            <path fill="none" stroke-width="1.0" stroke-linecap="round" stroke-opacity="1.0" stroke="rgb(0, 0, 0)" stroke-linejoin="round" d=" M 38.710, 152.791 79.228, 117.977 38.710, 152.791 79.228, 117.977 " />
            <path fill="none" stroke-width="1.0" stroke-linecap="round" stroke-opacity="1.0" stroke="rgb(0, 0, 0)" stroke-linejoin="round" d=" M 123.248, 123.219 123.248, 162.859 123.248, 123.219 123.248, 162.859 " />
            <path fill="none" stroke-width="1.0" stroke-linecap="round" stroke-opacity="1.0" stroke="rgb(0, 0, 0)" stroke-linejoin="round" d=" M 79.420, 117.813 117.552, 85.049 117.744, 84.884 123.248, 80.155 117.744, 84.884 117.552, 85.049 79.420, 117.813 117.552, 85.049 117.744, 84.884 123.248, 80.155 " />
        </g>
    </g>
    <g id="View Layer_Frame" inkscape:groupmode="lineset" inkscape:label="View Layer_Frame">
        <g inkscape:groupmode="layer" id="strokes" inkscape:label="strokes">
            <path fill="none" stroke-width="2.0" stroke-linecap="round" stroke-opacity="1.0" stroke="rgb(255, 0, 0)" stroke-linejoin="round" d=" M 54.194, 88.702 54.155, 88.747 54.004, 88.916 53.854, 89.086 53.704, 89.256 53.553, 89.425 53.403, 89.595 53.253, 89.764 53.102, 89.934 52.952, 90.103 52.802, 90.273 52.651, 90.442 52.501, 90.612 52.351, 90.782 52.200, 90.951 52.050, 91.121 51.900, 91.290 51.749, 91.460 51.599, 91.629 51.449, 91.799 51.298, 91.969 51.148, 92.138 50.998, 92.308 50.848, 92.477 50.697, 92.647 50.547, 92.816 50.397, 92.986 50.246, 93.155 50.096, 93.325 49.946, 93.495 49.795, 93.664 49.645, 93.834 49.495, 94.003 49.344, 94.173 49.194, 94.342 49.044, 94.512 48.893, 94.681 48.743, 94.851 48.593, 95.021 48.442, 95.190 48.292, 95.360 48.142, 95.529 47.991, 95.699 47.841, 95.868 47.691, 96.038 47.540, 96.208 47.390, 96.377 47.240, 96.547 47.089, 96.716 46.939, 96.886 46.789, 97.055 46.638, 97.225 46.488, 97.394 46.338, 97.564 46.187, 97.734 46.037, 97.903 45.887, 98.073 45.737, 98.242 45.586, 98.412 45.436, 98.581 45.286, 98.751 45.135, 98.921 44.985, 99.090 44.835, 99.260 44.684, 99.429 44.534, 99.599 44.384, 99.768 44.233, 99.938 44.083, 100.107 43.933, 100.277 43.782, 100.447 43.632, 100.616 43.482, 100.786 43.331, 100.955 43.181, 101.125 43.031, 101.294 42.880, 101.464 42.730, 101.633 42.580, 101.803 42.429, 101.973 42.279, 102.142 42.129, 102.312 41.978, 102.481 41.828, 102.651 41.678, 102.820 41.527, 102.990 41.377, 103.160 41.227, 103.329 41.076, 103.499 40.926, 103.668 40.776, 103.838 40.626, 104.007 40.475, 104.177 40.325, 104.346 40.175, 104.516 40.024, 104.686 39.874, 104.855 39.724, 105.025 39.573, 105.194 39.423, 105.364 39.273, 105.533 39.122, 105.703 38.972, 105.873 38.822, 106.042 38.671, 106.212 38.521, 106.381 38.371, 106.551 38.220, 106.720 38.070, 106.890 37.920, 107.059 37.769, 107.229 37.619, 107.399 37.469, 107.568 37.318, 107.738 37.168, 107.907 37.018, 108.077 36.867, 108.246 36.717, 108.416 36.567, 108.585 36.416, 108.755 36.266, 108.925 36.116, 109.094 35.965, 109.264 35.815, 109.433 35.665, 109.603 35.515, 109.772 35.364, 109.942 35.214, 110.112 35.064, 110.281 34.913, 110.451 34.763, 110.620 34.613, 110.790 34.462, 110.959 34.312, 111.129 34.162, 111.298 34.011, 111.468 33.861, 111.638 33.711, 111.807 33.560, 111.977 33.410, 112.146 33.260, 112.316 33.109, 112.485 33.572, 112.540 34.035, 112.596 34.497, 112.651 34.960, 112.706 35.423, 112.761 35.885, 112.816 36.348, 112.871 36.811, 112.926 37.273, 112.981 37.736, 113.036 38.198, 113.091 38.661, 113.147 39.124, 113.202 39.586, 113.257 40.049, 113.312 40.512, 113.367 40.974, 113.422 41.437, 113.477 41.900, 113.532 42.362, 113.587 42.825, 113.642 43.288, 113.697 43.750, 113.753 44.213, 113.808 44.676, 113.863 45.138, 113.918 45.601, 113.973 46.063, 114.028 46.526, 114.083 46.989, 114.138 47.451, 114.193 47.914, 114.248 48.019, 114.261 48.377, 114.303 48.839, 114.359 49.302, 114.414 49.765, 114.469 50.227, 114.524 50.690, 114.579 51.153, 114.634 51.615, 114.689 52.078, 114.744 52.541, 114.799 53.003, 114.854 53.466, 114.910 53.929, 114.965 54.391, 115.020 54.854, 115.075 55.316, 115.130 55.779, 115.185 56.242, 115.240 56.704, 115.295 57.167, 115.350 57.630, 115.405 58.092, 115.460 58.555, 115.516 59.018, 115.571 59.480, 115.626 59.943, 115.681 60.406, 115.736 60.868, 115.791 61.331, 115.846 61.794, 115.901 62.256, 115.956 62.719, 116.011 63.181, 116.066 63.644, 116.122 64.107, 116.177 64.569, 116.232 65.032, 116.287 65.495, 116.342 65.957, 116.397 66.178, 116.423 66.420, 116.452 66.883, 116.507 67.345, 116.562 67.808, 116.617 68.271, 116.673 68.733, 116.728 69.196, 116.783 69.659, 116.838 70.121, 116.893 70.584, 116.948 71.046, 117.003 71.509, 117.058 71.972, 117.113 72.434, 117.168 72.897, 117.223 73.360, 117.279 73.822, 117.334 74.285, 117.389 74.748, 117.444 75.210, 117.499 75.673, 117.554 76.136, 117.609 76.598, 117.664 77.061, 117.719 77.524, 117.774 77.986, 117.829 78.449, 117.885 78.911, 117.940 79.228, 117.977 79.374, 117.995 79.837, 118.050 80.299, 118.105 80.762, 118.160 81.225, 118.215 81.687, 118.270 82.150, 118.325 82.613, 118.380 83.075, 118.436 83.538, 118.491 84.001, 118.546 84.463, 118.601 84.926, 118.656 85.389, 118.711 85.851, 118.766 86.314, 118.821 86.776, 118.876 87.239, 118.931 87.702, 118.986 88.164, 119.042 88.627, 119.097 89.090, 119.152 89.552, 119.207 90.015, 119.262 90.478, 119.317 90.940, 119.372 91.403, 119.427 91.866, 119.482 92.328, 119.537 92.791, 119.592 93.254, 119.648 93.716, 119.703 94.179, 119.758 94.642, 119.813 95.104, 119.868 95.567, 119.923 96.029, 119.978 96.492, 120.033 96.955, 120.088 97.417, 120.143 97.880, 120.199 98.343, 120.254 98.805, 120.309 99.268, 120.364 99.731, 120.419 100.193, 120.474 100.656, 120.529 101.119, 120.584 101.581, 120.639 102.044, 120.694 102.507, 120.749 102.969, 120.805 103.432, 120.860 103.894, 120.915 104.357, 120.970 104.820, 121.025 105.282, 121.080 105.745, 121.135 106.208, 121.190 106.670, 121.245 107.133, 121.300 107.596, 121.355 108.058, 121.411 108.521, 121.466 108.984, 121.521 109.446, 121.576 109.909, 121.631 110.372, 121.686 110.834, 121.741 111.297, 121.796 111.759, 121.851 112.222, 121.906 112.685, 121.962 113.147, 122.017 113.610, 122.072 114.073, 122.127 114.535, 122.182 114.998, 122.237 115.461, 122.292 115.923, 122.347 116.386, 122.402 116.849, 122.457 117.311, 122.512 117.774, 122.568 118.237, 122.623 118.699, 122.678 119.162, 122.733 119.624, 122.788 120.087, 122.843 120.550, 122.898 121.012, 122.953 121.475, 123.008 121.938, 123.063 122.400, 123.118 122.863, 123.174 123.248, 123.219 123.326, 123.229 123.788, 123.284 124.251, 123.339 124.714, 123.394 125.176, 123.449 125.639, 123.504 126.102, 123.559 126.252, 123.390 126.402, 123.220 126.553, 123.051 126.703, 122.881 126.853, 122.711 127.003, 122.542 127.154, 122.372 127.304, 122.203 127.454, 122.033 127.605, 121.864 127.755, 121.694 127.905, 121.524 128.056, 121.355 128.206, 121.185 128.356, 121.016 128.507, 120.846 128.657, 120.677 128.807, 120.507 128.958, 120.338 129.108, 120.168 129.258, 119.998 129.409, 119.829 129.559, 119.659 129.709, 119.490 129.860, 119.320 130.010, 119.151 130.160, 118.981 130.311, 118.812 130.461, 118.642 130.611, 118.472 130.762, 118.303 130.912, 118.133 131.062, 117.964 131.213, 117.794 131.363, 117.625 131.513, 117.455 131.664, 117.285 131.814, 117.116 131.964, 116.946 132.114, 116.777 132.265, 116.607 132.415, 116.438 132.565, 116.268 132.716, 116.099 132.866, 115.929 133.016, 115.759 133.167, 115.590 133.317, 115.420 133.467, 115.251 133.618, 115.081 133.768, 114.912 133.918, 114.742 134.069, 114.572 134.219, 114.403 134.369, 114.233 134.520, 114.064 134.670, 113.894 134.820, 113.725 134.971, 113.555 135.121, 113.386 135.271, 113.216 135.422, 113.046 135.572, 112.877 135.722, 112.707 135.873, 112.538 136.023, 112.368 136.173, 112.199 136.324, 112.029 136.474, 111.860 136.624, 111.690 136.775, 111.520 136.925, 111.351 137.075, 111.181 137.225, 111.012 137.376, 110.842 137.526, 110.673 137.676, 110.503 137.827, 110.333 137.977, 110.164 138.127, 109.994 138.278, 109.825 138.428, 109.655 138.578, 109.486 138.729, 109.316 138.879, 109.147 139.029, 108.977 139.180, 108.807 139.330, 108.638 139.480, 108.468 139.631, 108.299 139.781, 108.129 139.931, 107.960 140.082, 107.790 140.232, 107.620 140.382, 107.451 140.533, 107.281 140.683, 107.112 140.833, 106.942 140.984, 106.773 141.134, 106.603 141.284, 106.434 141.435, 106.264 141.585, 106.094 141.735, 105.925 141.885, 105.755 142.036, 105.586 142.186, 105.416 142.336, 105.247 142.487, 105.077 142.637, 104.908 142.787, 104.738 142.938, 104.568 143.088, 104.399 143.238, 104.229 143.389, 104.060 143.539, 103.890 143.689, 103.721 143.840, 103.551 143.990, 103.381 144.140, 103.212 144.291, 103.042 144.441, 102.873 144.591, 102.703 144.742, 102.534 144.892, 102.364 145.042, 102.195 145.193, 102.025 145.343, 101.855 145.493, 101.686 145.644, 101.516 145.794, 101.347 145.944, 101.177 146.095, 101.008 146.245, 100.838 146.395, 100.668 146.546, 100.499 146.696, 100.329 146.846, 100.160 146.996, 99.990 147.147, 99.821 147.297, 99.651 147.447, 99.482 147.598, 99.312 147.748, 99.142 147.898, 98.973 148.049, 98.803 148.199, 98.634 148.349, 98.464 148.500, 98.295 148.650, 98.125 148.800, 97.956 148.951, 97.786 149.101, 97.616 149.251, 97.447 149.402, 97.277 149.552, 97.108 149.702, 96.938 149.853, 96.769 150.003, 96.599 150.153, 96.429 150.304, 96.260 150.454, 96.090 150.604, 95.921 150.716, 95.794 150.755, 95.751 150.905, 95.582 151.055, 95.412 151.206, 95.243 151.356, 95.073 151.506, 94.903 151.657, 94.734 151.807, 94.564 151.957, 94.395 152.107, 94.225 152.258, 94.056 152.408, 93.886 152.558, 93.716 152.709, 93.547 152.859, 93.377 153.009, 93.208 153.160, 93.038 153.310, 92.869 153.460, 92.699 153.611, 92.530 153.761, 92.360 153.911, 92.190 154.062, 92.021 154.212, 91.851 154.362, 91.682 154.513, 91.512 154.663, 91.343 154.813, 91.173 154.964, 91.004 155.114, 90.834 155.264, 90.664 155.415, 90.495 155.565, 90.325 155.715, 90.156 155.866, 89.986 156.016, 89.817 156.166, 89.647 156.317, 89.477 155.854, 89.422 155.391, 89.367 154.929, 89.312 154.466, 89.257 154.003, 89.202 153.541, 89.147 153.078, 89.092 152.615, 89.037 152.153, 88.982 151.690, 88.927 151.227, 88.871 150.765, 88.816 150.716, 88.811 150.765, 88.816 151.227, 88.871 151.690, 88.927 152.153, 88.982 152.615, 89.037 153.078, 89.092 153.541, 89.147 154.003, 89.202 154.466, 89.257 154.929, 89.312 155.391, 89.367 155.854, 89.422 156.317, 89.477 156.166, 89.647 156.016, 89.817 155.866, 89.986 155.715, 90.156 155.565, 90.325 155.415, 90.495 155.264, 90.664 155.114, 90.834 154.964, 91.004 154.813, 91.173 154.663, 91.343 154.513, 91.512 154.362, 91.682 154.212, 91.851 154.062, 92.021 153.911, 92.190 153.761, 92.360 153.611, 92.530 153.460, 92.699 153.310, 92.869 153.160, 93.038 153.009, 93.208 152.859, 93.377 152.709, 93.547 152.558, 93.716 152.408, 93.886 152.258, 94.056 152.107, 94.225 151.957, 94.395 151.807, 94.564 151.657, 94.734 151.506, 94.903 151.356, 95.073 151.206, 95.243 151.055, 95.412 150.905, 95.582 150.755, 95.751 150.716, 95.794 150.604, 95.921 150.454, 96.090 150.304, 96.260 150.153, 96.429 150.003, 96.599 149.853, 96.769 149.702, 96.938 149.552, 97.108 149.402, 97.277 149.251, 97.447 149.101, 97.616 148.951, 97.786 148.800, 97.956 148.650, 98.125 148.500, 98.295 148.349, 98.464 148.199, 98.634 148.049, 98.803 147.898, 98.973 147.748, 99.142 147.598, 99.312 147.447, 99.482 147.297, 99.651 147.147, 99.821 146.996, 99.990 146.846, 100.160 146.696, 100.329 146.546, 100.499 146.395, 100.668 146.245, 100.838 146.095, 101.008 145.944, 101.177 145.794, 101.347 145.644, 101.516 145.493, 101.686 145.343, 101.855 145.193, 102.025 145.042, 102.195 144.892, 102.364 144.742, 102.534 144.591, 102.703 144.441, 102.873 144.291, 103.042 144.140, 103.212 143.990, 103.381 143.840, 103.551 143.689, 103.721 143.539, 103.890 143.389, 104.060 143.238, 104.229 143.088, 104.399 142.938, 104.568 142.787, 104.738 142.637, 104.908 142.487, 105.077 142.336, 105.247 142.186, 105.416 142.036, 105.586 141.885, 105.755 141.735, 105.925 141.585, 106.094 141.435, 106.264 141.284, 106.434 141.134, 106.603 140.984, 106.773 140.833, 106.942 140.683, 107.112 140.533, 107.281 140.382, 107.451 140.232, 107.620 140.082, 107.790 139.931, 107.960 139.781, 108.129 139.631, 108.299 139.480, 108.468 139.330, 108.638 139.180, 108.807 139.029, 108.977 138.879, 109.147 138.729, 109.316 138.578, 109.486 138.428, 109.655 138.278, 109.825 138.127, 109.994 137.977, 110.164 137.827, 110.333 137.676, 110.503 137.526, 110.673 137.376, 110.842 137.225, 111.012 137.075, 111.181 136.925, 111.351 136.775, 111.520 136.624, 111.690 136.474, 111.860 136.324, 112.029 136.173, 112.199 136.023, 112.368 135.873, 112.538 135.722, 112.707 135.572, 112.877 135.422, 113.046 135.271, 113.216 135.121, 113.386 134.971, 113.555 134.820, 113.725 134.670, 113.894 134.520, 114.064 134.369, 114.233 134.219, 114.403 134.069, 114.572 133.918, 114.742 133.768, 114.912 133.618, 115.081 133.467, 115.251 133.317, 115.420 133.167, 115.590 133.016, 115.759 132.866, 115.929 132.716, 116.099 132.565, 116.268 132.415, 116.438 132.265, 116.607 132.114, 116.777 131.964, 116.946 131.814, 117.116 131.664, 117.285 131.513, 117.455 131.363, 117.625 131.213, 117.794 131.062, 117.964 130.912, 118.133 130.762, 118.303 130.611, 118.472 130.461, 118.642 130.311, 118.812 130.160, 118.981 130.010, 119.151 129.860, 119.320 129.709, 119.490 129.559, 119.659 129.409, 119.829 129.258, 119.998 129.108, 120.168 128.958, 120.338 128.807, 120.507 128.657, 120.677 128.507, 120.846 128.356, 121.016 128.206, 121.185 128.056, 121.355 127.905, 121.524 127.755, 121.694 127.605, 121.864 127.454, 122.033 127.304, 122.203 127.154, 122.372 127.003, 122.542 126.853, 122.711 126.703, 122.881 126.553, 123.051 126.402, 123.220 126.252, 123.390 126.102, 123.559 125.639, 123.504 125.176, 123.449 124.714, 123.394 124.251, 123.339 123.788, 123.284 123.326, 123.229 123.248, 123.219 122.863, 123.174 122.400, 123.118 121.938, 123.063 121.475, 123.008 121.012, 122.953 120.550, 122.898 120.087, 122.843 119.624, 122.788 119.162, 122.733 118.699, 122.678 118.237, 122.623 117.774, 122.568 117.311, 122.512 116.849, 122.457 116.386, 122.402 115.923, 122.347 115.461, 122.292 114.998, 122.237 114.535, 122.182 114.073, 122.127 113.610, 122.072 113.147, 122.017 112.685, 121.962 112.222, 121.906 111.759, 121.851 111.297, 121.796 110.834, 121.741 110.372, 121.686 109.909, 121.631 109.446, 121.576 108.984, 121.521 108.521, 121.466 108.058, 121.411 107.596, 121.355 107.133, 121.300 106.670, 121.245 106.208, 121.190 105.745, 121.135 105.282, 121.080 104.820, 121.025 104.357, 120.970 103.894, 120.915 103.432, 120.860 102.969, 120.805 102.507, 120.749 102.044, 120.694 101.581, 120.639 101.119, 120.584 100.656, 120.529 100.193, 120.474 99.731, 120.419 99.268, 120.364 98.805, 120.309 98.343, 120.254 97.880, 120.199 97.417, 120.143 96.955, 120.088 96.492, 120.033 96.029, 119.978 95.567, 119.923 95.104, 119.868 94.642, 119.813 94.179, 119.758 93.716, 119.703 93.254, 119.648 92.791, 119.592 92.328, 119.537 91.866, 119.482 91.403, 119.427 90.940, 119.372 90.478, 119.317 90.015, 119.262 89.552, 119.207 89.090, 119.152 88.627, 119.097 88.164, 119.042 87.702, 118.986 87.239, 118.931 86.776, 118.876 86.314, 118.821 85.851, 118.766 85.389, 118.711 84.926, 118.656 84.463, 118.601 84.001, 118.546 83.538, 118.491 83.075, 118.436 82.613, 118.380 82.150, 118.325 81.687, 118.270 81.225, 118.215 80.762, 118.160 80.299, 118.105 79.837, 118.050 79.374, 117.995 79.228, 117.977 78.911, 117.940 78.449, 117.885 77.986, 117.829 77.524, 117.774 77.061, 117.719 76.598, 117.664 76.136, 117.609 75.673, 117.554 75.210, 117.499 74.748, 117.444 74.285, 117.389 73.822, 117.334 73.360, 117.279 72.897, 117.223 72.434, 117.168 71.972, 117.113 71.509, 117.058 71.046, 117.003 70.584, 116.948 70.121, 116.893 69.659, 116.838 69.196, 116.783 68.733, 116.728 68.271, 116.673 67.808, 116.617 67.345, 116.562 66.883, 116.507 66.420, 116.452 66.178, 116.423 65.957, 116.397 65.495, 116.342 65.032, 116.287 64.569, 116.232 64.107, 116.177 63.644, 116.122 63.181, 116.066 62.719, 116.011 62.256, 115.956 61.794, 115.901 61.331, 115.846 60.868, 115.791 60.406, 115.736 59.943, 115.681 59.480, 115.626 59.018, 115.571 58.555, 115.516 58.092, 115.460 57.630, 115.405 57.167, 115.350 56.704, 115.295 56.242, 115.240 55.779, 115.185 55.316, 115.130 54.854, 115.075 54.391, 115.020 53.929, 114.965 53.466, 114.910 53.003, 114.854 52.541, 114.799 52.078, 114.744 51.615, 114.689 51.153, 114.634 50.690, 114.579 50.227, 114.524 49.765, 114.469 49.302, 114.414 48.839, 114.359 48.377, 114.303 48.019, 114.261 47.914, 114.248 47.451, 114.193 46.989, 114.138 46.526, 114.083 46.063, 114.028 45.601, 113.973 45.138, 113.918 44.676, 113.863 44.213, 113.808 43.750, 113.753 43.288, 113.697 42.825, 113.642 42.362, 113.587 41.900, 113.532 41.437, 113.477 40.974, 113.422 40.512, 113.367 40.049, 113.312 39.586, 113.257 39.124, 113.202 38.661, 113.147 38.198, 113.091 37.736, 113.036 37.273, 112.981 36.811, 112.926 36.348, 112.871 35.885, 112.816 35.423, 112.761 34.960, 112.706 34.497, 112.651 34.035, 112.596 33.572, 112.540 33.109, 112.485 33.260, 112.316 33.410, 112.146 33.560, 111.977 33.711, 111.807 33.861, 111.638 34.011, 111.468 34.162, 111.298 34.312, 111.129 34.462, 110.959 34.613, 110.790 34.763, 110.620 34.913, 110.451 35.064, 110.281 35.214, 110.112 35.364, 109.942 35.515, 109.772 35.665, 109.603 35.815, 109.433 35.965, 109.264 36.116, 109.094 36.266, 108.925 36.416, 108.755 36.567, 108.585 36.717, 108.416 36.867, 108.246 37.018, 108.077 37.168, 107.907 37.318, 107.738 37.469, 107.568 37.619, 107.399 37.769, 107.229 37.920, 107.059 38.070, 106.890 38.220, 106.720 38.371, 106.551 38.521, 106.381 38.671, 106.212 38.822, 106.042 38.972, 105.873 39.122, 105.703 39.273, 105.533 39.423, 105.364 39.573, 105.194 39.724, 105.025 39.874, 104.855 40.024, 104.686 40.175, 104.516 40.325, 104.346 40.475, 104.177 40.626, 104.007 40.776, 103.838 40.926, 103.668 41.076, 103.499 41.227, 103.329 41.377, 103.160 41.527, 102.990 41.678, 102.820 41.828, 102.651 41.978, 102.481 42.129, 102.312 42.279, 102.142 42.429, 101.973 42.580, 101.803 42.730, 101.633 42.880, 101.464 43.031, 101.294 43.181, 101.125 43.331, 100.955 43.482, 100.786 43.632, 100.616 43.782, 100.447 43.933, 100.277 44.083, 100.107 44.233, 99.938 44.384, 99.768 44.534, 99.599 44.684, 99.429 44.835, 99.260 44.985, 99.090 45.135, 98.921 45.286, 98.751 45.436, 98.581 45.586, 98.412 45.737, 98.242 45.887, 98.073 46.037, 97.903 46.187, 97.734 46.338, 97.564 46.488, 97.394 46.638, 97.225 46.789, 97.055 46.939, 96.886 47.089, 96.716 47.240, 96.547 47.390, 96.377 47.540, 96.208 47.691, 96.038 47.841, 95.868 47.991, 95.699 48.142, 95.529 48.292, 95.360 48.442, 95.190 48.593, 95.021 48.743, 94.851 48.893, 94.681 49.044, 94.512 49.194, 94.342 49.344, 94.173 49.495, 94.003 49.645, 93.834 49.795, 93.664 49.946, 93.495 50.096, 93.325 50.246, 93.155 50.397, 92.986 50.547, 92.816 50.697, 92.647 50.848, 92.477 50.998, 92.308 51.148, 92.138 51.298, 91.969 51.449, 91.799 51.599, 91.629 51.749, 91.460 51.900, 91.290 52.050, 91.121 52.200, 90.951 52.351, 90.782 52.501, 90.612 52.651, 90.442 52.802, 90.273 52.952, 90.103 53.102, 89.934 53.253, 89.764 53.403, 89.595 53.553, 89.425 53.704, 89.256 53.854, 89.086 54.004, 88.916 54.155, 88.747 54.194, 88.702 54.155, 88.747 54.004, 88.916 53.854, 89.086 53.704, 89.256 53.553, 89.425 53.403, 89.595 53.253, 89.764 53.102, 89.934 52.952, 90.103 52.802, 90.273 52.651, 90.442 52.501, 90.612 52.351, 90.782 52.200, 90.951 52.050, 91.121 51.900, 91.290 51.749, 91.460 51.599, 91.629 51.449, 91.799 51.298, 91.969 51.148, 92.138 50.998, 92.308 50.848, 92.477 50.697, 92.647 50.547, 92.816 50.397, 92.986 50.246, 93.155 50.096, 93.325 49.946, 93.495 49.795, 93.664 49.645, 93.834 49.495, 94.003 49.344, 94.173 49.194, 94.342 49.044, 94.512 48.893, 94.681 48.743, 94.851 48.593, 95.021 48.442, 95.190 48.292, 95.360 48.142, 95.529 47.991, 95.699 47.841, 95.868 47.691, 96.038 47.540, 96.208 47.390, 96.377 47.240, 96.547 47.089, 96.716 46.939, 96.886 46.789, 97.055 46.638, 97.225 46.488, 97.394 46.338, 97.564 46.187, 97.734 46.037, 97.903 45.887, 98.073 45.737, 98.242 45.586, 98.412 45.436, 98.581 45.286, 98.751 45.135, 98.921 44.985, 99.090 44.835, 99.260 44.684, 99.429 44.534, 99.599 44.384, 99.768 44.233, 99.938 44.083, 100.107 43.933, 100.277 43.782, 100.447 43.632, 100.616 43.482, 100.786 43.331, 100.955 43.181, 101.125 43.031, 101.294 42.880, 101.464 42.730, 101.633 42.580, 101.803 42.429, 101.973 42.279, 102.142 42.129, 102.312 41.978, 102.481 41.828, 102.651 41.678, 102.820 41.527, 102.990 41.377, 103.160 41.227, 103.329 41.076, 103.499 40.926, 103.668 40.776, 103.838 40.626, 104.007 40.475, 104.177 40.325, 104.346 40.175, 104.516 40.024, 104.686 39.874, 104.855 39.724, 105.025 39.573, 105.194 39.423, 105.364 39.273, 105.533 39.122, 105.703 38.972, 105.873 38.822, 106.042 38.671, 106.212 38.521, 106.381 38.371, 106.551 38.220, 106.720 38.070, 106.890 37.920, 107.059 37.769, 107.229 37.619, 107.399 37.469, 107.568 37.318, 107.738 37.168, 107.907 37.018, 108.077 36.867, 108.246 36.717, 108.416 36.567, 108.585 36.416, 108.755 36.266, 108.925 36.116, 109.094 35.965, 109.264 35.815, 109.433 35.665, 109.603 35.515, 109.772 35.364, 109.942 35.214, 110.112 35.064, 110.281 34.913, 110.451 34.763, 110.620 34.613, 110.790 34.462, 110.959 34.312, 111.129 34.162, 111.298 34.011, 111.468 33.861, 111.638 33.711, 111.807 33.560, 111.977 33.410, 112.146 33.260, 112.316 33.109, 112.485 33.572, 112.540 34.035, 112.596 34.497, 112.651 34.960, 112.706 35.423, 112.761 35.885, 112.816 36.348, 112.871 36.811, 112.926 37.273, 112.981 37.736, 113.036 38.198, 113.091 38.661, 113.147 39.124, 113.202 39.586, 113.257 40.049, 113.312 40.512, 113.367 40.974, 113.422 41.437, 113.477 41.900, 113.532 42.362, 113.587 42.825, 113.642 43.288, 113.697 43.750, 113.753 44.213, 113.808 44.676, 113.863 45.138, 113.918 45.601, 113.973 46.063, 114.028 46.526, 114.083 46.989, 114.138 47.451, 114.193 47.914, 114.248 48.019, 114.261 48.377, 114.303 48.839, 114.359 49.302, 114.414 49.765, 114.469 50.227, 114.524 50.690, 114.579 51.153, 114.634 51.615, 114.689 52.078, 114.744 52.541, 114.799 53.003, 114.854 53.466, 114.910 53.929, 114.965 54.391, 115.020 54.854, 115.075 55.316, 115.130 55.779, 115.185 56.242, 115.240 56.704, 115.295 57.167, 115.350 57.630, 115.405 58.092, 115.460 58.555, 115.516 59.018, 115.571 59.480, 115.626 59.943, 115.681 60.406, 115.736 60.868, 115.791 61.331, 115.846 61.794, 115.901 62.256, 115.956 62.719, 116.011 63.181, 116.066 63.644, 116.122 64.107, 116.177 64.569, 116.232 65.032, 116.287 65.495, 116.342 65.957, 116.397 66.178, 116.423 66.420, 116.452 66.883, 116.507 67.345, 116.562 67.808, 116.617 68.271, 116.673 68.733, 116.728 69.196, 116.783 69.659, 116.838 70.121, 116.893 70.584, 116.948 71.046, 117.003 71.509, 117.058 71.972, 117.113 72.434, 117.168 72.897, 117.223 73.360, 117.279 73.822, 117.334 74.285, 117.389 74.748, 117.444 75.210, 117.499 75.673, 117.554 76.136, 117.609 76.598, 117.664 77.061, 117.719 77.524, 117.774 77.986, 117.829 78.449, 117.885 78.911, 117.940 79.228, 117.977 79.374, 117.995 79.837, 118.050 80.299, 118.105 80.762, 118.160 81.225, 118.215 81.687, 118.270 82.150, 118.325 82.613, 118.380 83.075, 118.436 83.538, 118.491 84.001, 118.546 84.463, 118.601 84.926, 118.656 85.389, 118.711 85.851, 118.766 86.314, 118.821 86.776, 118.876 87.239, 118.931 87.702, 118.986 88.164, 119.042 88.627, 119.097 89.090, 119.152 89.552, 119.207 90.015, 119.262 90.478, 119.317 90.940, 119.372 91.403, 119.427 91.866, 119.482 92.328, 119.537 92.791, 119.592 93.254, 119.648 93.716, 119.703 94.179, 119.758 94.642, 119.813 95.104, 119.868 95.567, 119.923 96.029, 119.978 96.492, 120.033 96.955, 120.088 97.417, 120.143 97.880, 120.199 98.343, 120.254 98.805, 120.309 99.268, 120.364 99.731, 120.419 100.193, 120.474 100.656, 120.529 101.119, 120.584 101.581, 120.639 102.044, 120.694 102.507, 120.749 102.969, 120.805 103.432, 120.860 103.894, 120.915 104.357, 120.970 104.820, 121.025 105.282, 121.080 105.745, 121.135 106.208, 121.190 106.670, 121.245 107.133, 121.300 107.596, 121.355 108.058, 121.411 108.521, 121.466 108.984, 121.521 109.446, 121.576 109.909, 121.631 110.372, 121.686 110.834, 121.741 111.297, 121.796 111.759, 121.851 112.222, 121.906 112.685, 121.962 113.147, 122.017 113.610, 122.072 114.073, 122.127 114.535, 122.182 114.998, 122.237 115.461, 122.292 115.923, 122.347 116.386, 122.402 116.849, 122.457 117.311, 122.512 117.774, 122.568 118.237, 122.623 118.699, 122.678 119.162, 122.733 119.624, 122.788 120.087, 122.843 120.550, 122.898 121.012, 122.953 121.475, 123.008 121.938, 123.063 122.400, 123.118 122.863, 123.174 123.248, 123.219 123.326, 123.229 123.788, 123.284 124.251, 123.339 124.714, 123.394 125.176, 123.449 125.639, 123.504 126.102, 123.559 126.252, 123.390 126.402, 123.220 126.553, 123.051 126.703, 122.881 126.853, 122.711 127.003, 122.542 127.154, 122.372 127.304, 122.203 127.454, 122.033 127.605, 121.864 127.755, 121.694 127.905, 121.524 128.056, 121.355 128.206, 121.185 128.356, 121.016 128.507, 120.846 128.657, 120.677 128.807, 120.507 128.958, 120.338 129.108, 120.168 129.258, 119.998 129.409, 119.829 129.559, 119.659 129.709, 119.490 129.860, 119.320 130.010, 119.151 130.160, 118.981 130.311, 118.812 130.461, 118.642 130.611, 118.472 130.762, 118.303 130.912, 118.133 131.062, 117.964 131.213, 117.794 131.363, 117.625 131.513, 117.455 131.664, 117.285 131.814, 117.116 131.964, 116.946 132.114, 116.777 132.265, 116.607 132.415, 116.438 132.565, 116.268 132.716, 116.099 132.866, 115.929 133.016, 115.759 133.167, 115.590 133.317, 115.420 133.467, 115.251 133.618, 115.081 133.768, 114.912 133.918, 114.742 134.069, 114.572 134.219, 114.403 134.369, 114.233 134.520, 114.064 134.670, 113.894 134.820, 113.725 134.971, 113.555 135.121, 113.386 135.271, 113.216 135.422, 113.046 135.572, 112.877 135.722, 112.707 135.873, 112.538 136.023, 112.368 136.173, 112.199 136.324, 112.029 136.474, 111.860 136.624, 111.690 136.775, 111.520 136.925, 111.351 137.075, 111.181 137.225, 111.012 137.376, 110.842 137.526, 110.673 137.676, 110.503 137.827, 110.333 137.977, 110.164 138.127, 109.994 138.278, 109.825 138.428, 109.655 138.578, 109.486 138.729, 109.316 138.879, 109.147 139.029, 108.977 139.180, 108.807 139.330, 108.638 139.480, 108.468 139.631, 108.299 139.781, 108.129 139.931, 107.960 140.082, 107.790 140.232, 107.620 140.382, 107.451 140.533, 107.281 140.683, 107.112 140.833, 106.942 140.984, 106.773 141.134, 106.603 141.284, 106.434 141.435, 106.264 141.585, 106.094 141.735, 105.925 141.885, 105.755 142.036, 105.586 142.186, 105.416 142.336, 105.247 142.487, 105.077 142.637, 104.908 142.787, 104.738 142.938, 104.568 143.088, 104.399 143.238, 104.229 143.389, 104.060 143.539, 103.890 143.689, 103.721 143.840, 103.551 143.990, 103.381 144.140, 103.212 144.291, 103.042 144.441, 102.873 144.591, 102.703 144.742, 102.534 144.892, 102.364 145.042, 102.195 145.193, 102.025 145.343, 101.855 145.493, 101.686 145.644, 101.516 145.794, 101.347 145.944, 101.177 146.095, 101.008 146.245, 100.838 146.395, 100.668 146.546, 100.499 146.696, 100.329 146.846, 100.160 146.996, 99.990 147.147, 99.821 147.297, 99.651 147.447, 99.482 147.598, 99.312 147.748, 99.142 147.898, 98.973 148.049, 98.803 148.199, 98.634 148.349, 98.464 148.500, 98.295 148.650, 98.125 148.800, 97.956 148.951, 97.786 149.101, 97.616 149.251, 97.447 149.402, 97.277 149.552, 97.108 149.702, 96.938 149.853, 96.769 150.003, 96.599 150.153, 96.429 150.304, 96.260 150.454, 96.090 150.604, 95.921 150.716, 95.794 150.755, 95.751 150.905, 95.582 151.055, 95.412 151.206, 95.243 151.356, 95.073 151.506, 94.903 151.657, 94.734 151.807, 94.564 151.957, 94.395 152.107, 94.225 152.258, 94.056 152.408, 93.886 152.558, 93.716 152.709, 93.547 152.859, 93.377 153.009, 93.208 153.160, 93.038 153.310, 92.869 153.460, 92.699 153.611, 92.530 153.761, 92.360 153.911, 92.190 154.062, 92.021 154.212, 91.851 154.362, 91.682 154.513, 91.512 154.663, 91.343 154.813, 91.173 154.964, 91.004 155.114, 90.834 155.264, 90.664 155.415, 90.495 155.565, 90.325 155.715, 90.156 155.866, 89.986 156.016, 89.817 156.166, 89.647 156.317, 89.477 155.854, 89.422 155.391, 89.367 154.929, 89.312 154.466, 89.257 154.003, 89.202 153.541, 89.147 153.078, 89.092 152.615, 89.037 152.153, 88.982 151.690, 88.927 151.227, 88.871 150.765, 88.816 150.716, 88.811 " />
        </g>
    </g>
    <g id="View Layer_Answer" xmlns:inkscape="http://www.inkscape.org/namespaces/inkscape" inkscape:groupmode="lineset" inkscape:label="View Layer_Answer">
        <g xmlns:inkscape="http://www.inkscape.org/namespaces/inkscape" inkscape:groupmode="layer" id="strokes" inkscape:label="strokes" />
    </g>
</svg>
